<?xml version="1.0" encoding="utf-8"?>
<!-- Generator: Adobe Illustrator 22.1.0, SVG Export Plug-In . SVG Version: 6.00 Build 0)  -->
<svg version="1.1" id="Слой_1" xmlns="http://www.w3.org/2000/svg" xmlns:xlink="http://www.w3.org/1999/xlink" x="0px" y="0px"
	 viewBox="0 0 234.7 192" style="enable-background:new 0 0 234.7 192;" xml:space="preserve">
<g>
	<defs>
		<rect id="SVGID_1_" width="234.7" height="192"/>
	</defs>
	<clipPath id="SVGID_2_">
		<use xlink:href="#SVGID_1_"  style="overflow:visible;"/>
	</clipPath>
	<path d="M231.1,106.1c0.1-0.1,0.1-0.1,0.2-0.2c0.3-0.3,0.5-0.7,0.8-1c0.1-0.2,0.3-0.4,0.4-0.6c0.1-0.2,0.3-0.4,0.4-0.7
		c0.2-0.3,0.3-0.6,0.4-0.9c0.1-0.2,0.2-0.3,0.2-0.5c0.2-0.4,0.3-0.7,0.4-1.1c0-0.1,0.1-0.2,0.1-0.3c0.1-0.5,0.3-1,0.4-1.4
		c0,0,0,0,0-0.1c1.1-5.1-0.4-10.6-4.3-14.6l-80-80c-6.3-6.3-16.4-6.3-22.6,0c-6.3,6.3-6.3,16.4,0,22.6L180.1,80H16
		C7.2,80,0,87.2,0,96s7.2,16,16,16h164l-52.7,52.7c-6.3,6.3-6.3,16.4,0,22.6c3.1,3.1,7.2,4.7,11.3,4.7c4.1,0,8.2-1.6,11.3-4.7
		l79.9-79.9C230.3,107,230.7,106.6,231.1,106.1"/>
</g>
</svg>
