<svg xmlns="http://www.w3.org/2000/svg" xmlns:xlink="http://www.w3.org/1999/xlink" viewBox="0 0 314 110"><defs><style>.cls-1,.cls-4{fill:none;}.cls-2{clip-path:url(#clip-path);}.cls-3{fill:#fff;}.cls-4{stroke:gray;stroke-miterlimit:10;stroke-width:0.5px;stroke-dasharray:1 1;}</style><clipPath id="clip-path" transform="translate(0)"><rect class="cls-1" width="314" height="110"/></clipPath></defs><title>Ресурс 1</title><g id="Слой_2" data-name="Слой 2"><g id="Слой_1-2" data-name="Слой 1"><g class="cls-2"><path class="cls-3" d="M301,55a13,13,0,0,1,13-13V7a7,7,0,0,0-7-7H7A7,7,0,0,0,0,7V42A13,13,0,0,1,0,68v35a7,7,0,0,0,7,7H307a7,7,0,0,0,7-7V68a13,13,0,0,1-13-13" transform="translate(0)"/><path class="cls-4" d="M296.84,55.23a18,18,0,0,1,13-17.27V8.44a5,5,0,0,0-5-5H9.19a5,5,0,0,0-5,5V38A18,18,0,0,1,16.84,55.23,18,18,0,0,1,4.19,72.43v29.13a5,5,0,0,0,5,5H304.81a5,5,0,0,0,5-5v-29A18,18,0,0,1,296.84,55.23Z" transform="translate(0)"/></g></g></g></svg>