<svg id="Слой_1" data-name="Слой 1" xmlns="http://www.w3.org/2000/svg" xmlns:xlink="http://www.w3.org/1999/xlink" viewBox="0 0 378.49 379.04"><defs><style>.cls-1{fill:none;}.cls-2{clip-path:url(#clip-path);}.cls-3{fill:#1d1d1b;}</style><clipPath id="clip-path" transform="translate(0 0)"><rect class="cls-1" width="378.49" height="379.04"/></clipPath></defs><title>phone</title><g class="cls-2"><path class="cls-3" d="M299.29,234.8c-7.76-8.07-17.12-12.39-27-12.39s-19.28,4.24-27.36,12.32l-25.28,25.2c-2.08-1.13-4.16-2.16-6.16-3.2-2.88-1.44-5.6-2.8-7.92-4.25-23.68-15-45.2-34.64-65.84-60-10-12.64-16.72-23.28-21.6-34.07,6.56-6,12.64-12.25,18.56-18.25,2.24-2.23,4.48-4.55,6.72-6.8,16.8-16.79,16.8-38.56,0-55.36L121.53,56.16c-2.48-2.48-5-5-7.44-7.59-4.8-5-9.84-10.09-15-14.89C91.29,26,82,21.93,72.25,21.93S53.05,26,45.05,33.68l-.16.16L17.69,61.29A58.48,58.48,0,0,0,.33,98.48c-1.92,23.36,5,45.13,10.24,59.36,13,35,32.32,67.36,61.2,102.09a376.6,376.6,0,0,0,125.36,98.16c18.4,8.71,43,19,70.4,20.79,1.68.08,3.44.16,5,.16,18.48,0,34-6.63,46.16-19.84.08-.16.24-.24.32-.4a183.57,183.57,0,0,1,14-14.48c3.44-3.28,7-6.71,10.4-10.32,7.92-8.23,12.08-17.84,12.08-27.68s-4.24-19.44-12.32-27.44ZM327.93,319c-.08,0-.08.08,0,0-3.12,3.37-6.32,6.41-9.76,9.76a212.24,212.24,0,0,0-15.44,16c-8.08,8.65-17.6,12.72-30.08,12.72-1.2,0-2.48,0-3.68-.07-23.76-1.52-45.84-10.81-62.4-18.72A355.62,355.62,0,0,1,88.49,246.25C61.21,213.36,43,183,30.89,150.32c-7.44-19.91-10.16-35.44-9-50.07A36.73,36.73,0,0,1,33,76.48L60.25,49.2c3.92-3.68,8.08-5.68,12.16-5.68,5,0,9.12,3,11.68,5.6l.24.24c4.88,4.57,9.52,9.28,14.4,14.32,2.48,2.57,5,5.12,7.6,7.77l21.84,21.84c8.48,8.48,8.48,16.32,0,24.8-2.32,2.32-4.56,4.64-6.88,6.87-6.72,6.88-13.12,13.29-20.08,19.52-.16.16-.32.25-.4.4-6.88,6.89-5.6,13.6-4.16,18.16l.24.73c5.68,13.75,13.68,26.71,25.84,42.16l.08.07c22.08,27.2,45.36,48.41,71,64.64a104.45,104.45,0,0,0,9.84,5.36c2.88,1.45,5.6,2.8,7.92,4.25.32.16.64.39,1,.55a17.34,17.34,0,0,0,7.92,2c6.64,0,10.8-4.15,12.16-5.51L260,249.93c2.72-2.73,7-6,12.08-6s9,3.11,11.52,5.84L327.85,294c8.24,8.16,8.24,16.57.08,25" transform="translate(0 0)"/><path class="cls-3" d="M204.57,90.16A103,103,0,0,1,288.41,174a10.73,10.73,0,0,0,10.64,9,16.32,16.32,0,0,0,1.84-.16,10.82,10.82,0,0,0,8.88-12.48A124.49,124.49,0,0,0,208.33,68.88a10.86,10.86,0,0,0-12.48,8.8,10.68,10.68,0,0,0,8.72,12.48" transform="translate(0 0)"/><path class="cls-3" d="M378.33,167.2a205,205,0,0,0-167-167,10.79,10.79,0,1,0-3.52,21.29A183.1,183.1,0,0,1,357.05,170.73a10.73,10.73,0,0,0,10.64,9,12.7,12.7,0,0,0,1.84-.16,10.59,10.59,0,0,0,8.8-12.32" transform="translate(0 0)"/></g></svg>
